<svg t="1694933531056" class="icon" viewBox="0 0 1024 1024" version="1.1" xmlns="http://www.w3.org/2000/svg" p-id="21352" width="200" height="200"><path d="M511 769.4l-157.2 158.8c-5.6 5.6-13.4 8.8-21.4 8.8-8 0-15.6-3.2-21.4-8.8l-123.6-124.8c-11.6-11.6-11.6-30.6 0-42.2l156.8-158.4 42.4 42.4-135.6 137 81.4 82.2 136-137.6 42.6 42.6zM964.6 368l-274-276.8c-5.6-5.6-13.4-8.8-21.4-8.8s-15.6 3.2-21.4 8.8l-99 100c-11.6 11.6-11.6 30.6 0 42.2l80.6 81.4-67.4 68.2 42.4 42.4 88.8-89.6c11.6-11.6 11.6-30.6 0-42.2l-80.6-81.4 56.8-57.4 241.4 244-19.2 95.2-74.8-75.6c-5.6-5.6-13.4-8.8-21.4-8.8s-15.6 3.2-21.4 8.8l-87.8 88.8 42.4 42.4 66.8-67.4 65.2 65.8c13.4 13.4 32.8 18.4 51 13 18.2-5.4 31.8-20.4 35.6-39.2l25.6-126.8c1.8-9.8-1.2-19.8-8.2-27z m-143.8 556.4l3.6-3 53.8-53.8c1-1 2.2-2.2 3-3.6 23.4-32 20-75.8-8-103.8L504 391.4l-14.6-176c-2.2-26-18.2-48.8-41.8-59.6l-132.2-61c-11.4-5.2-24.8-2.8-33.8 6L204.6 178c-11.8 11.8-11.8 30.8 0 42.4l75.2 75.2-27.4 27.4-75.2-75.2c-11.8-11.8-30.8-11.8-42.4 0l-77.2 77.2c-8.8 8.8-11.2 22.4-6 33.8l61 132.2c10.8 23.6 33.8 39.6 59.6 41.8l176 14.6 368.8 368.8c15.6 15.6 36 23.6 56.6 23.6 16.4 0 32.8-5 47.2-15.4zM156 311.4l75.2 75.2c11.8 11.8 30.8 11.8 42.4 0l69.8-69.8c11.8-11.8 11.8-30.8 0-42.4l-75.2-75.2L309.4 158l113.2 52.2c4 1.8 6.8 5.8 7.2 10.2l15.4 187c0.6 7 3.6 13.8 8.6 18.8l376.6 376.6c6.6 6.6 7.8 16.6 3 24.6l-49.6 49.6c-7.8 4.8-18 3.6-24.6-3L382.6 497.2c-5-5-11.6-8-18.8-8.6l-187-15.4c-4.4-0.4-8.2-3-10.2-7.2l-52.2-113.2L156 311.4z" p-id="21353" data-spm-anchor-id="a313x.search_index.0.i13.36983a81YWIGKM" class="selected" fill="#707070"></path></svg>